<svg width="50" height="50" viewBox="0 0 50 50" fill="none" xmlns="http://www.w3.org/2000/svg">
  <defs>
    <linearGradient id="favBlue" x1="5" y1="5" x2="25" y2="45" gradientUnits="userSpaceOnUse">
      <stop offset="0%" stop-color="#3e4095" />
      <stop offset="100%" stop-color="#2a2b66" />
    </linearGradient>
    <linearGradient id="favYellow" x1="20" y1="5" x2="40" y2="45" gradientUnits="userSpaceOnUse">
      <stop offset="0%" stop-color="#ffd148" />
      <stop offset="100%" stop-color="#c99f18" />
    </linearGradient>
  </defs>

  <!-- Left Blue Arc -->
  <path 
    d="M 23 6 
       C 12 6, 6 14, 6 25 
       C 6 36, 12 44, 23 44 
       C 17 40, 13 33, 13 25 
       C 13 17, 17 10, 23 6 Z" 
    fill="url(#favBlue)" 
  />

  <!-- Center Integration Element -->
  <path 
    d="M 23 6 
       C 28 6, 32 10, 34 16 
       C 31 20, 27 20, 23 23 
       C 27 26, 31 26, 34 30 
       C 32 36, 28 40, 23 40 
       C 27 36, 29 30, 27 23 
       C 29 16, 27 10, 23 6 Z" 
    fill="#3e4095" 
    opacity="0.9"
  />

  <!-- Right Yellow Arc -->
  <path 
    d="M 27 6 
       C 38 6, 44 14, 44 25 
       C 44 36, 38 44, 27 44 
       C 33 40, 37 33, 37 25 
       C 37 17, 33 10, 27 6 Z" 
    fill="url(#favYellow)" 
  />
</svg>